<svg version="1.2" xmlns="http://www.w3.org/2000/svg" viewBox="0 0 1024 1024" width="1024" height="1024">
	<title>apple-touch-icon</title>
	<defs>
		<linearGradient id="g1" x2="1" gradientUnits="userSpaceOnUse" gradientTransform="matrix(768.569,1331.2,-1331.2,768.569,127.716,-154.254)">
			<stop offset="0" stop-color="#00b21c"/>
			<stop offset=".25" stop-color="#00b21c"/>
			<stop offset=".94" stop-color="#007c14"/>
			<stop offset="1" stop-color="#007c14"/>
		</linearGradient>
		<linearGradient id="g2" x2="1" gradientUnits="userSpaceOnUse" gradientTransform="matrix(0,1057.742,-470.785,0,181.405,-25.594)">
			<stop offset="0" stop-color="#ffffff"/>
			<stop offset="1" stop-color="#ffffff"/>
		</linearGradient>
		<linearGradient id="g3" x2="1" gradientUnits="userSpaceOnUse" gradientTransform="matrix(5.069,0,0,1.222,-2894.575,3243.268)">
			<stop offset="0" stop-color="#ffffff"/>
			<stop offset="1" stop-color="#ffffff"/>
		</linearGradient>
		<linearGradient id="g4" x2="1" gradientUnits="userSpaceOnUse" gradientTransform="matrix(5.069,0,0,2.916,-2894.576,3243.058)">
			<stop offset="0" stop-color="#ffffff"/>
			<stop offset="1" stop-color="#ffffff"/>
		</linearGradient>
		<linearGradient id="g5" x2="1" gradientUnits="userSpaceOnUse" gradientTransform="matrix(5.262,0,0,11.175,-3028.84,3284.986)">
			<stop offset="0" stop-color="#ffffff"/>
			<stop offset="1" stop-color="#ffffff"/>
		</linearGradient>
	</defs>
	<style>
		tspan { white-space:pre } 
		.s0 { fill: url(#g1) } 
		.s1 { fill: url(#g2) } 
		.s2 { fill: url(#g3) } 
		.s3 { fill: url(#g4) } 
		.s4 { fill: url(#g5) } 
	</style>
	<g id="Folder 2">
		<path id="Shape 1" class="s0" d="m0-0.7h1024v1024h-1024z"/>
		<g id="Folder 1">
			<path id="Layer" class="s1" d="m128.1-6c-6.2 2.7-73.1-2.4-77.9 2.3 0.4 1.4 17.6 64.2 18 65.6 39.4 132 134.6 440 188.5 521.8 19.7-19.4 36.7-35 55.9-53.9-62.9-109.7-142.8-384.4-178.2-512.8-0.4-1.4-5.9-21.6-6.3-23z"/>
			<path id="Layer" class="s2" d="m958.1 505.8c-118.5 0-181.6 168.8-265.4 168.8-87.1 0-141.6-168.8-265.4-168.8-121.4 0-191.6 169.2-266.6 169.7h-0.4c-53.4 0-101.4-73.9-160.3-121.8v104.7c51.1 49 99.4 94.3 160.7 94.3 114.5 0 186.4-172.7 266.6-172.7 73.7 0 148.4 172.7 266.6 172.7 113 0 196.7-173.4 266-173.5h0.1c29.4 0 53.5 19.7 64 29.8v-86.9q-7.6-4-15.6-7-8-3.1-16.4-5.1-8.3-2.1-16.8-3.1-8.5-1.1-17.1-1.1z"/>
			<path id="Layer" class="s3" d="m370 634.2l-51.3 51.8c31.7 42.1 89.9 121.7 182.4 121.7h0.5c79.7-0.3 118.6-53.6 118.6-53.6-20.8-10.6-60-44.8-60-44.8q-6.1 5.1-13 9.2-6.9 4-14.4 6.8-7.5 2.8-15.4 4.3-7.8 1.5-15.8 1.7c-66.2 0-117.8-79.8-131.6-97.1z"/>
			<path id="Layer" class="s4" d="m872.9-2.7c-0.5 1.5-3.1 11.1-3.7 13.1-19 70.5-121.9 439.3-234.2 608.6q6.5 7.1 13.9 13.1 7.5 6 15.8 10.8 8.3 4.9 17.2 8.4 8.9 3.5 18.3 5.7c110.4-169.7 195.5-458 233.6-611.9 0.5-2.1 12.5-47.1 13-49.1-4.9-3.7-68.1 3.2-73.9 1.3z"/>
		</g>
	</g>
</svg>